<svg width="37" height="37" viewBox="0 0 37 37" fill="none" xmlns="http://www.w3.org/2000/svg">
<path fill-rule="evenodd" clip-rule="evenodd" d="M18.5 0C18.9089 0 19.301 0.162425 19.5901 0.451544C19.8792 0.740663 20.0417 1.13279 20.0417 1.54167V16.9583H35.4583C35.8672 16.9583 36.2593 17.1208 36.5485 17.4099C36.8376 17.699 37 18.0911 37 18.5C37 18.9089 36.8376 19.301 36.5485 19.5901C36.2593 19.8792 35.8672 20.0417 35.4583 20.0417H20.0417V35.4583C20.0417 35.8672 19.8792 36.2593 19.5901 36.5485C19.301 36.8376 18.9089 37 18.5 37C18.0911 37 17.699 36.8376 17.4099 36.5485C17.1208 36.2593 16.9583 35.8672 16.9583 35.4583V20.0417H1.54167C1.13279 20.0417 0.740663 19.8792 0.451544 19.5901C0.162425 19.301 0 18.9089 0 18.5C0 18.0911 0.162425 17.699 0.451544 17.4099C0.740663 17.1208 1.13279 16.9583 1.54167 16.9583H16.9583V1.54167C16.9583 1.13279 17.1208 0.740663 17.4099 0.451544C17.699 0.162425 18.0911 0 18.5 0Z" fill="#F5F5F5"/>
</svg>
