<svg width="41" height="41" viewBox="0 0 41 41" fill="none" xmlns="http://www.w3.org/2000/svg">
<circle cx="20.0376" cy="20.0376" r="20.0376" transform="matrix(-1 0 0 1 40.0752 0)" fill="#0D5169"/>
<path fill-rule="evenodd" clip-rule="evenodd" d="M27.6444 6.37395C27.5391 6.27104 27.414 6.1894 27.2762 6.1337C27.1384 6.07799 26.9907 6.04932 26.8416 6.04932C26.6925 6.04932 26.5448 6.07799 26.407 6.1337C26.2693 6.1894 26.1441 6.27104 26.0388 6.37395L12.4318 19.6338C12.3263 19.7365 12.2425 19.8584 12.1853 19.9927C12.1281 20.1269 12.0987 20.2708 12.0987 20.4162C12.0987 20.5615 12.1281 20.7054 12.1853 20.8397C12.2425 20.9739 12.3263 21.0958 12.4318 21.1985L26.0388 34.4584C26.2517 34.6659 26.5405 34.7824 26.8416 34.7824C27.1427 34.7824 27.4315 34.6659 27.6444 34.4584C27.8573 34.2509 27.9769 33.9695 27.9769 33.676C27.9769 33.3826 27.8573 33.1012 27.6444 32.8937L14.838 20.4162L27.6444 7.93861C27.75 7.83597 27.8338 7.71403 27.891 7.57979C27.9481 7.44554 27.9775 7.30163 27.9775 7.15628C27.9775 7.01094 27.9481 6.86702 27.891 6.73278C27.8338 6.59853 27.75 6.47659 27.6444 6.37395Z" fill="#F5F5F5"/>
</svg>
