<svg width="41" height="41" viewBox="0 0 41 41" fill="none" xmlns="http://www.w3.org/2000/svg">
<circle cx="20.7963" cy="20.0376" r="20.0376" fill="#0D5169"/>
<path fill-rule="evenodd" clip-rule="evenodd" d="M13.1896 6.37346C13.2949 6.27056 13.42 6.18891 13.5578 6.13321C13.6956 6.0775 13.8432 6.04883 13.9924 6.04883C14.1415 6.04883 14.2892 6.0775 14.427 6.13321C14.5647 6.18891 14.6899 6.27056 14.7952 6.37346L28.4021 19.6333C28.5077 19.736 28.5915 19.8579 28.6487 19.9922C28.7058 20.1264 28.7353 20.2703 28.7353 20.4157C28.7353 20.561 28.7058 20.7049 28.6487 20.8392C28.5915 20.9734 28.5077 21.0954 28.4021 21.198L14.7952 34.4579C14.5823 34.6654 14.2935 34.7819 13.9924 34.7819C13.6913 34.7819 13.4025 34.6654 13.1896 34.4579C12.9767 34.2504 12.857 33.969 12.857 33.6755C12.857 33.3821 12.9767 33.1007 13.1896 32.8932L25.996 20.4157L13.1896 7.93813C13.084 7.83548 13.0002 7.71355 12.943 7.5793C12.8859 7.44505 12.8564 7.30114 12.8564 7.15579C12.8564 7.01045 12.8859 6.86653 12.943 6.73229C13.0002 6.59804 13.084 6.4761 13.1896 6.37346Z" fill="#F5F5F5"/>
</svg>
